<svg width="24" height="24" xmlns="http://www.w3.org/2000/svg">
        <path d="M12.0004,15.0908C13.5793,15.0908 14.8887,13.7814 14.8887,12.2025C14.8887,10.6236 13.5793,9.3142 12.0004,9.3142C10.4215,9.3142 9.1121,10.6236 9.1121,12.2025C9.1121,13.7814 10.4215,15.0908 12.0004,15.0908ZM18.1229,13.0108L19.8554,14.3589C20.0099,14.4747 20.0477,14.7056 19.9327,14.8978L18.2765,17.7475C18.1607,17.9397 17.9685,17.9784 17.7763,17.902L15.7357,17.0936C15.3118,17.4017 14.8501,17.7097 14.349,17.902L14.041,20.0584C14.0024,20.2506 13.8487,20.405 13.6557,20.405H10.3443C10.1521,20.405 9.9976,20.2506 9.959,20.0584L9.651,17.902C9.1507,17.7097 8.6882,17.4395 8.2643,17.0936L6.2237,17.902C6.0315,17.9792 5.8385,17.9406 5.7235,17.7475L4.0673,14.8978C3.9515,14.7056 3.9901,14.4739 4.1446,14.3589L5.8771,13.0108C5.8385,12.7414 5.8385,12.472 5.8385,12.2025C5.8385,11.9331 5.8385,11.6636 5.8771,11.3942L4.1446,10.0461C3.9901,9.9303 3.9523,9.6994 4.0673,9.5072L5.7235,6.6575C5.8393,6.4653 6.0315,6.4267 6.2237,6.5031L8.2643,7.3114C8.6882,7.0033 9.1499,6.6953 9.651,6.5031L9.959,4.3467C9.9976,4.1544 10.1513,4 10.3443,4H13.6557C13.8479,4 14.0024,4.1544 14.041,4.3467L14.349,6.5031C14.8493,6.6953 15.3118,6.9655 15.7357,7.3114L17.7763,6.5031C17.9685,6.4258 18.1615,6.4644 18.2765,6.6575L19.9327,9.5072C20.0485,9.6994 20.0099,9.9311 19.8554,10.0461L18.1229,11.3942C18.1615,11.6636 18.1615,11.9331 18.1615,12.2025C18.1615,12.472 18.1615,12.7414 18.1229,13.0108V13.0108Z" fill="white" />


</svg>
